<svg width="32" height="32" viewBox="0 0 32 32" fill="none" xmlns="http://www.w3.org/2000/svg">
<path d="M16 0C17.9255 0 19.7715 0.340121 21.4814 0.963592L19.5717 2.87336C18.4336 2.56438 17.2361 2.3995 16 2.3995C8.48865 2.3995 2.39949 8.48867 2.39949 16C2.39949 23.5114 8.48865 29.6005 16 29.6005C23.5114 29.6005 29.6005 23.5114 29.6005 16C29.6005 14.7657 29.4361 13.5697 29.128 12.4329L31.038 10.5229C31.6604 12.2315 32 14.0762 32 16C32 24.8367 24.8365 32 16 32C7.16345 32 0 24.8367 0 16C0 7.16346 7.16345 0 16 0ZM16 6.40203C16.8296 6.40203 17.6345 6.50729 18.4024 6.70519L18.4025 9.21223C17.6512 8.94627 16.8424 8.80153 16 8.80153C12.0243 8.80153 8.80148 12.0244 8.80148 16.0001C8.80148 19.9756 12.0243 23.1986 16 23.1986C19.9755 23.1986 23.1985 19.9756 23.1985 16.0001C23.1985 15.1587 23.054 14.351 22.7888 13.6006H25.2955C25.4929 14.3675 25.598 15.1715 25.598 16.0001C25.598 21.3009 21.3008 25.5981 16 25.5981C10.6991 25.5981 6.40198 21.3009 6.40198 16.0001C6.40198 10.6992 10.6991 6.40203 16 6.40203ZM19.1993 16.0001C19.1993 17.767 17.7668 19.1995 16 19.1995C14.233 19.1995 12.8006 17.767 12.8006 16.0001C12.8006 14.2331 14.233 12.8008 16 12.8008C16.4441 12.8008 16.867 12.8912 17.2514 13.0548L20.0022 10.304L20.002 5.20234C20.002 4.88415 20.1284 4.57899 20.3535 4.35398L24.3525 0.354694C24.6956 0.0115656 25.2117 -0.0911012 25.6599 0.0946043C26.1083 0.280294 26.4005 0.717771 26.4005 1.20303V5.60215L30.7999 5.60223C31.2853 5.60225 31.7228 5.89455 31.9083 6.34288C32.0941 6.7912 31.9915 7.30722 31.6484 7.65035L27.6491 11.6495C27.424 11.8745 27.1189 12.0009 26.8008 12.0009L21.6988 12.0009L18.9471 14.7527C19.1094 15.136 19.1993 15.5575 19.1993 16.0001ZM26.3038 9.6014L27.9036 8.00168L25.2008 8.00164C24.5382 8.00162 24.001 7.46448 24.001 6.80188V4.09958L22.4015 5.69922L22.4017 9.50708C22.4182 9.52182 22.4343 9.53708 22.45 9.55287C22.4658 9.56872 22.4812 9.58491 22.4959 9.6014H26.3038Z" fill="#e0e0e0"/>
</svg>
