<svg width="32" height="32" viewBox="0 0 32 32" fill="none" xmlns="http://www.w3.org/2000/svg">
<path d="M16 0C24.8366 0 32 7.16345 32 16C32 24.8366 24.8366 32 16 32C7.16345 32 0 24.8366 0 16C0 7.16345 7.16345 0 16 0ZM20.7016 23.1985H11.2985C12.3416 27.0606 14.1547 29.6004 16 29.6004C17.8454 29.6004 19.6584 27.0606 20.7016 23.1985ZM8.81443 23.1994L4.45911 23.1993C5.99222 25.6517 8.28539 27.5804 11.0088 28.6554C10.1733 27.3439 9.48378 25.7021 8.97666 23.8313L8.81443 23.1994ZM27.541 23.1993L23.1857 23.1994C22.6677 25.3332 21.9196 27.1982 20.9895 28.6554C23.5443 27.6475 25.7195 25.8894 27.2447 23.6528L27.541 23.1993ZM8.15071 12.7995H2.77935L2.77175 12.8271C2.52845 13.845 2.39963 14.9074 2.39963 16C2.39963 17.6897 2.70771 19.3072 3.2708 20.7998L8.34708 20.7991C8.11943 19.2808 7.99878 17.6679 7.99878 16C7.99878 14.9058 8.0507 13.8353 8.15071 12.7995ZM21.4343 12.7996H10.5658C10.457 13.8239 10.3984 14.8952 10.3984 16C10.3984 17.695 10.5362 19.3112 10.7819 20.7995H21.2181C21.4639 19.3112 21.6016 17.695 21.6016 16C21.6016 14.8952 21.543 13.8239 21.4343 12.7996ZM29.2214 12.7981L23.8494 12.7995C23.9494 13.8353 24.0012 14.9058 24.0012 16C24.0012 17.6679 23.8806 19.2808 23.653 20.7991L28.7293 20.7998C29.2923 19.3072 29.6004 17.6897 29.6004 16C29.6004 14.8972 29.4692 13.825 29.2214 12.7981ZM11.0105 3.34461L10.9738 3.35856C7.69863 4.6619 5.0494 7.20121 3.60215 10.4005L8.4784 10.4011C8.9797 7.59705 9.85451 5.15593 11.0105 3.34461ZM16 2.39963L15.815 2.40811C13.7906 2.59328 11.8349 5.79595 10.9267 10.4004H21.0734C20.1676 5.80886 18.2203 2.61125 16.2021 2.40973L16 2.39963ZM20.9913 3.34471L21.1621 3.62321C22.2327 5.40289 23.0457 7.73834 23.5216 10.4011L28.3978 10.4005C27.0147 7.34272 24.5335 4.88783 21.4571 3.53871L20.9913 3.34471Z" fill="#e0e0e0"/>
</svg>
