<svg width="31" height="31" viewBox="0 0 31 31" fill="none" xmlns="http://www.w3.org/2000/svg">
<path d="M28.6051 4.77998L28.6127 4.97329L28.6154 5.16667V22.8128C28.6154 26.0174 26.0174 28.6154 22.8128 28.6154H5.16667C5.03701 28.6154 4.90821 28.6117 4.78036 28.6046C5.69581 30.0442 7.3068 31 9.14103 31H22.8128C27.3345 31 31 27.3345 31 22.8128V9.14103C31 7.30748 30.0449 5.69701 28.6051 4.77998ZM5.16667 0C2.31319 0 0 2.31319 0 5.16667V21.859C0 24.7124 2.31319 27.0256 5.16667 27.0256H21.859C24.7124 27.0256 27.0256 24.7124 27.0256 21.859V5.16667C27.0256 2.31319 24.7124 0 21.859 0H5.16667ZM2.38462 8.74359H24.641V21.859C24.641 23.3955 23.3955 24.641 21.859 24.641H5.16667C3.63018 24.641 2.38462 23.3955 2.38462 21.859V8.74359ZM5.16667 2.38462H21.859C23.3955 2.38462 24.641 3.63018 24.641 5.16667V6.35897H2.38462V5.16667C2.38462 3.63018 3.63018 2.38462 5.16667 2.38462Z" fill="#e0e0e0"/>
</svg>
