<svg width="27" height="32" viewBox="0 0 27 32" fill="none" xmlns="http://www.w3.org/2000/svg">
<path d="M15.8743 0C18.4137 0 20.4894 1.99885 20.6331 4.51176L20.6409 4.79301L24.2186 4.79461C25.5969 4.79461 26.7411 5.80405 26.9617 7.12901L26.9908 7.36596L27 7.59571L26.9986 13.5991L23.8236 13.5993C22.6417 13.5993 21.6522 14.4687 21.4715 15.5823L21.4472 15.7939L21.4395 16C21.4395 17.1901 22.3029 18.1865 23.4089 18.3685L23.6189 18.393L23.8236 18.4007L26.9986 18.4005L27 24.4045C27 25.8741 25.8761 27.0792 24.4467 27.196L24.2186 27.2053L20.6409 27.2044L20.6345 27.4806C20.5004 29.8106 18.7163 31.695 16.4414 31.9664L16.1545 31.9918L15.8743 32C13.3351 32 11.2593 30.001 11.1142 27.4859L11.1062 27.2044L7.53009 27.2053C6.15182 27.2053 5.0077 26.1959 4.78708 24.8714L4.75788 24.6345L4.74866 24.4048L4.74707 20.8009L4.488 20.7932C2.17412 20.6581 0.302906 18.8618 0.0333615 16.5709L0.00808998 16.2822L0 16C0 13.4429 1.98502 11.3528 4.48789 11.2067L4.74707 11.1981L4.74866 7.59542C4.74866 6.20756 5.75112 5.05547 7.06648 4.83331L7.30171 4.80389L7.52979 4.79461L11.1046 4.79301L11.1142 4.51926C11.2484 2.18928 13.0325 0.305016 15.3074 0.0335936L15.5942 0.00814636L15.8743 0ZM15.8743 2.4007C14.6352 2.4007 13.6167 3.35278 13.5012 4.57117L13.4902 4.80256L13.488 7.19379L7.53009 7.19531C7.34198 7.19531 7.18441 7.32691 7.14323 7.50386L7.13274 7.59571L7.1313 13.599L4.76816 13.5993C3.45147 13.5993 2.38408 14.6742 2.38408 16C2.38408 17.2479 3.32959 18.2733 4.53846 18.3896L4.76805 18.4007L7.1313 18.4004L7.13274 24.4045C7.13274 24.5938 7.26344 24.7526 7.43889 24.7941L7.52993 24.8046L13.488 24.8038L13.4902 27.1986C13.4902 28.5244 14.5576 29.5993 15.8743 29.5993C17.1135 29.5993 18.132 28.6472 18.2476 27.4307L18.2584 27.1997L18.2561 24.8038L24.2186 24.8046C24.4068 24.8046 24.5643 24.6731 24.6054 24.4964L24.6159 24.4048L24.6143 20.7993L23.7836 20.8007L23.4984 20.7903C21.0964 20.6268 19.2006 18.6817 19.064 16.2431L19.0561 15.9595L19.0664 15.6724C19.2289 13.2536 21.1604 11.3447 23.5463 11.2066L23.8236 11.1986L24.6143 11.1981L24.6159 7.59542C24.6159 7.44389 24.5323 7.31204 24.409 7.24412L24.3096 7.20587L24.2184 7.19531L18.2561 7.19379L18.2584 4.80139C18.2584 3.47552 17.1911 2.4007 15.8743 2.4007Z" fill="#e0e0e0"/>
</svg>
